<?xml version="1.0" encoding="UTF-8"?>
<svg width="632px" height="684px" viewBox="0 0 632 684" version="1.1" xmlns="http://www.w3.org/2000/svg" xmlns:xlink="http://www.w3.org/1999/xlink">
    <title>Artboard</title>
    <g id="Artboard" stroke="none" stroke-width="1" fill="none" fill-rule="evenodd">
        <circle id="magenta-circle" stroke="#FC007B" stroke-width="6" cx="350" cy="350" r="150"></circle>
        <circle id="green-circle" stroke="#00BB7F" stroke-width="12" cx="350" cy="350" r="115"></circle>
        <path d="M304,280 C312.284271,280 319,286.715729 319,295 L319,405 C319,413.284271 312.284271,420 304,420 C295.715729,420 289,413.284271 289,405 L289,295 C289,286.715729 295.715729,280 304,280 Z M304,396 C299.029437,396 295,400.029437 295,405 C295,409.970563 299.029437,414 304,414 C308.970563,414 313,409.970563 313,405 C313,400.029437 308.970563,396 304,396 Z M304,286 C299.029437,286 295,290.029437 295,295 C295,299.970563 299.029437,304 304,304 C308.970563,304 313,299.970563 313,295 C313,290.029437 308.970563,286 304,286 Z" id="I" fill="#FC007B"></path>
        <path d="M406.170207,284.032951 C412.215875,289.605349 412.629442,298.911989 407.16471,304.984289 L406.919804,305.250064 L364.70037,349.999532 L406.919804,394.749936 C412.640388,400.813479 412.304782,410.312704 406.170207,415.967049 C400.035631,421.621394 390.425126,421.289674 384.704542,415.226131 L334.295444,361.794922 C333.566986,361.022793 332.936732,360.194952 332.404151,359.326433 C330.275949,356.743495 329,353.446626 329,349.855194 C329,345.813218 330.616164,342.144346 333.244603,339.445476 C333.460516,339.160721 333.688204,338.881768 333.927593,338.609161 L334.295444,338.205078 L384.704542,284.773869 C390.425126,278.710326 400.035631,278.378606 406.170207,284.032951 Z M396,396 C391.029437,396 387,400.029437 387,405 C387,409.970563 391.029437,414 396,414 C400.970563,414 405,409.970563 405,405 C405,400.029437 400.970563,396 396,396 Z M395.826185,285.303984 C390.793401,285.303984 386.713523,289.33662 386.713523,294.31113 C386.713523,299.285639 390.793401,303.318275 395.826185,303.318275 C400.858969,303.318275 404.938846,299.285639 404.938846,294.31113 C404.938846,289.33662 400.858969,285.303984 395.826185,285.303984 Z" id="Combined-Shape" fill="#FC007B"></path>
    </g>
</svg>