<svg width="672" height="226" viewBox="0 0 672 226" fill="none" xmlns="http://www.w3.org/2000/svg">
<path d="M149.873 39.3037C146.098 44.721 141.665 51.2053 136.576 58.7566C131.652 66.3079 126.891 74.2696 122.294 82.6418C117.862 91.0139 114.086 99.386 110.967 107.758C107.848 116.13 106.289 123.764 106.289 130.658C106.289 136.896 107.602 141.903 110.229 145.679C113.019 149.29 116.467 152.163 120.571 154.297C124.839 156.431 129.517 157.827 134.606 158.483C139.859 159.14 144.948 159.468 149.873 159.468V205.761C141.173 205.761 132.636 205.022 124.264 203.545C116.056 202.068 108.341 199.605 101.118 196.158C93.8949 192.71 87.3285 188.196 81.4188 182.615C75.5091 177.033 70.5843 170.057 66.6445 161.684V205.761H20.3516V39.3037H66.6445V94.7074C69.7635 84.8579 73.7854 75.3367 78.7102 66.1437C83.7991 56.9508 89.0522 48.0042 94.4694 39.3037H149.873Z" fill="black"/>
<path d="M243.544 159.468V85.5966H206.608V159.468H243.544ZM289.837 205.761H160.315V39.3037H289.837V205.761Z" fill="black"/>
<path d="M442.828 145.679C442.828 153.887 441.187 161.684 437.903 169.072C434.784 176.295 430.516 182.615 425.099 188.032C419.682 193.449 413.279 197.799 405.892 201.083C398.669 204.202 390.954 205.761 382.746 205.761H367.725V159.468C370.844 159.468 374.045 159.632 377.329 159.961C380.776 160.125 383.895 159.879 386.686 159.222C389.641 158.565 392.021 157.252 393.827 155.282C395.632 153.312 396.535 150.111 396.535 145.679V85.5966H359.599V205.761H313.307V85.5966H299.517V39.3037H442.828V145.679Z" fill="black"/>
<path d="M507.87 39.55V30.1929H554.163V39.55H609.566V85.5966H595.531V150.357C595.531 152.82 595.859 154.708 596.516 156.021C597.337 157.334 598.404 158.319 599.717 158.976C601.03 159.468 602.508 159.714 604.149 159.714C605.791 159.714 607.596 159.714 609.566 159.714V205.761H591.098C581.577 205.761 574.026 203.955 568.445 200.344C563.027 196.732 558.841 192.136 555.886 186.555C553.096 180.809 551.29 174.407 550.469 167.348C549.812 160.125 549.484 152.902 549.484 145.679H512.548V164.393C512.548 170.139 511.399 175.556 509.101 180.645C506.967 185.57 504.012 189.92 500.236 193.695C496.461 197.471 492.028 200.426 486.939 202.56C481.851 204.694 476.515 205.761 470.934 205.761H452.22V159.714C454.19 159.714 455.995 159.714 457.637 159.714C459.279 159.714 460.756 159.468 462.069 158.976C463.383 158.319 464.368 157.334 465.024 156.021C465.845 154.708 466.255 152.82 466.255 150.357V85.5966H452.22V39.55H507.87ZM549.484 99.6322V85.5966H512.548V99.6322H549.484Z" fill="black"/>
<path d="M664.664 159.468V205.761H618.371V159.468H664.664Z" fill="black"/>
<path fill-rule="evenodd" clip-rule="evenodd" d="M90.723 32.5574L88.7427 35.7379C83.4697 44.2067 78.3525 52.9029 73.3909 61.8259V32.5574H13.6055V212.507H73.3909V184.068C74.4852 185.264 75.617 186.415 76.7868 187.519C83.1988 193.575 90.3457 198.492 98.2122 202.246C106.001 205.963 114.294 208.605 123.069 210.185L123.092 210.189C131.86 211.736 140.789 212.507 149.873 212.507H296.583V92.3429H306.56V212.507H382.746C391.833 212.507 400.463 210.776 408.567 207.276L408.6 207.262L408.632 207.247C416.734 203.647 423.835 198.837 429.869 192.802C435.897 186.775 440.636 179.749 444.083 171.78C444.58 170.658 445.044 169.529 445.474 168.39V212.507H470.934C477.401 212.507 483.624 211.266 489.549 208.781C495.418 206.32 500.591 202.882 505.007 198.466C509.374 194.098 512.803 189.054 515.271 183.374C517.96 177.4 519.295 171.05 519.295 164.393V152.425H542.831C542.973 157.604 543.28 162.782 543.751 167.959L543.758 168.043L543.768 168.127C544.667 175.855 546.661 183.002 549.818 189.502L549.869 189.607L549.924 189.711C553.42 196.314 558.383 201.744 564.702 205.957L564.741 205.983L564.78 206.008C571.829 210.569 580.812 212.507 591.099 212.507H671.411V152.722H611.625V152.968H604.149C603.454 152.968 602.92 152.894 602.511 152.791C602.503 152.783 602.494 152.775 602.485 152.766C602.466 152.686 602.445 152.586 602.424 152.464C602.342 151.992 602.277 151.304 602.277 150.357V92.3429H616.313V32.8037H560.909V23.4466H501.124V32.8037H449.575V32.5574H90.723ZM449.575 92.3429V145.679C449.575 148.138 449.442 150.569 449.176 152.968H457.637C458.223 152.968 458.695 152.915 459.074 152.837L459.134 152.717L459.268 152.502C459.283 152.462 459.317 152.363 459.355 152.187C459.435 151.822 459.509 151.231 459.509 150.357V92.3429H449.575ZM466.256 85.5966V150.357C466.256 152.82 465.845 154.708 465.024 156.021C464.368 157.334 463.383 158.319 462.07 158.976C460.756 159.468 459.279 159.714 457.637 159.714H452.22V205.761H470.934C476.515 205.761 481.851 204.694 486.94 202.56C492.029 200.426 496.461 197.471 500.236 193.695C504.012 189.92 506.967 185.57 509.101 180.645C511.399 175.556 512.548 170.139 512.548 164.393V145.679H549.484C549.484 152.902 549.813 160.125 550.469 167.348C551.29 174.407 553.096 180.809 555.886 186.555C558.841 192.136 563.027 196.732 568.445 200.344C574.026 203.955 581.577 205.761 591.099 205.761H609.567V159.714H604.149C602.508 159.714 601.03 159.468 599.717 158.976C598.404 158.319 597.337 157.334 596.516 156.021C595.859 154.708 595.531 152.82 595.531 150.357V85.5966H609.567V39.5499H554.163V30.1929H507.87V39.5499H452.22V85.5966H466.256ZM366.346 152.722H367.725C371.022 152.722 374.386 152.892 377.815 153.23C380.686 153.354 383.109 153.133 385.141 152.655L385.181 152.645L385.222 152.636C387.013 152.238 388.103 151.542 388.854 150.724C388.971 150.596 389.789 149.463 389.789 145.679V92.3429H366.346V152.722ZM359.6 85.5966H396.535V145.679C396.535 150.111 395.632 153.312 393.827 155.282C392.021 157.252 389.641 158.565 386.686 159.222C383.895 159.879 380.776 160.125 377.329 159.961C376.369 159.865 375.417 159.783 374.472 159.715C372.182 159.55 369.933 159.468 367.725 159.468V205.761H382.746C390.954 205.761 398.669 204.202 405.892 201.083C413.28 197.799 419.682 193.449 425.099 188.032C430.516 182.615 434.784 176.295 437.903 169.072C441.187 161.684 442.828 153.887 442.828 145.679V39.3037H299.517V85.5966H313.307V205.761H359.6V85.5966ZM153.569 152.722V45.8089C150.246 50.6098 146.457 56.1673 142.2 62.4842C137.392 69.8584 132.736 77.644 128.233 85.8431C123.94 93.9566 120.295 102.047 117.289 110.113C114.372 117.944 113.035 124.766 113.035 130.658C113.035 135.899 114.121 139.388 115.677 141.695C117.831 144.442 120.464 146.63 123.636 148.287C127.163 150.044 131.087 151.226 135.458 151.791C140.449 152.414 145.253 152.722 149.873 152.722H153.569ZM134.607 158.483C129.518 157.827 124.839 156.431 120.571 154.297C116.467 152.163 113.02 149.29 110.229 145.679C107.602 141.903 106.289 136.896 106.289 130.658C106.289 123.764 107.849 116.13 110.968 107.758C114.087 99.386 117.862 91.0139 122.295 82.6417C126.891 74.2696 131.652 66.3079 136.576 58.7566C139.702 54.1185 142.58 49.883 145.21 46.05C146.862 43.6424 148.417 41.3936 149.873 39.3037H94.4696C89.0524 48.0041 83.7993 56.9508 78.7103 66.1437C76.8016 69.7068 75.0284 73.3192 73.3909 76.9809C70.8035 82.7666 68.5548 88.6754 66.6446 94.7074V39.3037H20.3517V205.761H66.6446V161.684C68.6406 165.926 70.8893 169.809 73.3909 173.334C75.8271 176.767 78.5032 179.861 81.419 182.615C87.3287 188.196 93.8951 192.71 101.118 196.158C108.341 199.605 116.057 202.068 124.265 203.545C130.462 204.639 136.75 205.328 143.127 205.612C145.365 205.711 147.614 205.761 149.873 205.761V159.468C144.949 159.468 139.86 159.14 134.607 158.483ZM243.544 85.5966V159.468H206.608V85.5966H243.544ZM213.355 92.3429V152.722H236.798V92.3429H213.355ZM549.484 85.5966V99.6322H512.548V85.5966H549.484ZM519.295 92.3429V92.8859H542.738V92.3429H519.295ZM289.837 205.761V39.3037H160.315V205.761H289.837ZM664.664 159.468H618.371V205.761H664.664V159.468Z" fill="black"/>
<path d="M136.379 19.0649C132.603 24.4822 128.171 30.9665 123.082 38.5178C118.157 46.0691 113.397 54.0309 108.8 62.403C104.368 70.7751 100.592 79.1472 97.4733 87.5193C94.3543 95.8915 92.7948 103.525 92.7948 110.42C92.7948 116.658 94.108 121.664 96.7346 125.44C99.5253 129.052 102.973 131.924 107.077 134.058C111.345 136.193 116.023 137.588 121.112 138.245C126.365 138.901 131.454 139.229 136.379 139.229V185.522C127.679 185.522 119.142 184.784 110.77 183.306C102.562 181.829 94.8468 179.366 87.6238 175.919C80.4007 172.472 73.8344 167.957 67.9246 162.376C62.0149 156.795 57.0901 149.818 53.1503 141.446V185.522H6.85742V19.0649H53.1503V74.4687C56.2693 64.6191 60.2912 55.0979 65.216 45.905C70.305 36.7121 75.5581 27.7654 80.9753 19.0649H136.379Z" fill="white"/>
<path d="M230.05 139.229V65.3578H193.114V139.229H230.05ZM276.343 185.522H146.821V19.0649H276.343V185.522Z" fill="white"/>
<path d="M429.334 125.44C429.334 133.648 427.692 141.446 424.409 148.833C421.29 156.056 417.022 162.376 411.605 167.793C406.188 173.21 399.785 177.561 392.398 180.844C385.175 183.963 377.46 185.522 369.252 185.522H354.231V139.229C357.35 139.229 360.551 139.394 363.834 139.722C367.282 139.886 370.401 139.64 373.192 138.983C376.146 138.327 378.527 137.013 380.332 135.043C382.138 133.074 383.041 129.872 383.041 125.44V65.3578H346.105V185.522H299.812V65.3578H286.023V19.0649H429.334V125.44Z" fill="white"/>
<path d="M494.376 19.3112V9.9541H540.669V19.3112H596.072V65.3578H582.037V130.119C582.037 132.581 582.365 134.469 583.022 135.782C583.842 137.095 584.909 138.08 586.223 138.737C587.536 139.229 589.013 139.476 590.655 139.476C592.297 139.476 594.102 139.476 596.072 139.476V185.522H577.604C568.083 185.522 560.532 183.717 554.95 180.105C549.533 176.494 545.347 171.897 542.392 166.316C539.601 160.57 537.796 154.168 536.975 147.109C536.318 139.886 535.99 132.663 535.99 125.44H499.054V144.154C499.054 149.9 497.905 155.317 495.607 160.406C493.473 165.331 490.518 169.681 486.742 173.457C482.967 177.232 478.534 180.187 473.445 182.321C468.356 184.455 463.021 185.522 457.44 185.522H438.726V139.476C440.696 139.476 442.501 139.476 444.143 139.476C445.784 139.476 447.262 139.229 448.575 138.737C449.888 138.08 450.873 137.095 451.53 135.782C452.351 134.469 452.761 132.581 452.761 130.119V65.3578H438.726V19.3112H494.376ZM535.99 79.3935V65.3578H499.054V79.3935H535.99Z" fill="white"/>
<path d="M651.17 139.229V185.522H604.877V139.229H651.17Z" fill="white"/>
<path fill-rule="evenodd" clip-rule="evenodd" d="M77.2289 12.3187L75.2486 15.4991C69.9755 23.968 64.8583 32.6641 59.8968 41.5871V12.3187H0.111328V192.269H59.8968V163.829C60.9911 165.025 62.1229 166.176 63.2927 167.281C69.7046 173.336 76.8516 178.253 84.7181 182.007C92.5066 185.725 100.8 188.366 109.575 189.946L109.598 189.95C118.366 191.497 127.295 192.269 136.379 192.269H283.089V72.1041H293.066V192.269H369.252C378.339 192.269 386.969 190.537 395.073 187.037L395.106 187.023L395.138 187.009C403.24 183.408 410.341 178.598 416.375 172.564C422.403 166.536 427.142 159.511 430.588 151.541C431.086 150.42 431.55 149.29 431.98 148.152V192.269H457.44C463.907 192.269 470.13 191.027 476.054 188.543C481.924 186.081 487.097 182.643 491.513 178.227C495.88 173.86 499.309 168.816 501.777 163.135C504.466 157.162 505.801 150.811 505.801 144.154V132.186H529.337C529.479 137.365 529.786 142.543 530.257 147.72L530.264 147.804L530.274 147.888C531.173 155.616 533.167 162.763 536.324 169.263L536.375 169.369L536.43 169.472C539.926 176.076 544.888 181.505 551.208 185.718L551.247 185.744L551.286 185.769C558.335 190.33 567.318 192.269 577.604 192.269H657.916V132.483H598.131V132.729H590.655C589.96 132.729 589.426 132.655 589.017 132.552C589.008 132.544 589 132.536 588.991 132.527C588.972 132.447 588.951 132.347 588.93 132.225C588.847 131.753 588.783 131.066 588.783 130.119V72.1041H602.819V12.5649H547.415V3.20782H487.629V12.5649H436.08V12.3187H77.2289ZM436.08 72.1041V125.44C436.08 127.9 435.948 130.33 435.682 132.729H444.143C444.729 132.729 445.201 132.676 445.58 132.598L445.64 132.478L445.774 132.263C445.789 132.224 445.823 132.124 445.861 131.948C445.941 131.583 446.015 130.992 446.015 130.119V72.1041H436.08ZM452.761 65.3578V130.119C452.761 132.581 452.351 134.469 451.53 135.782C450.874 137.095 449.889 138.08 448.575 138.737C447.262 139.229 445.785 139.476 444.143 139.476H438.726V185.522H457.44C463.021 185.522 468.357 184.455 473.445 182.321C478.534 180.187 482.967 177.232 486.742 173.457C490.518 169.681 493.473 165.331 495.607 160.406C497.905 155.317 499.054 149.9 499.054 144.154V125.44H535.99C535.99 132.663 536.318 139.886 536.975 147.109C537.796 154.168 539.602 160.57 542.392 166.316C545.347 171.897 549.533 176.494 554.951 180.105C560.532 183.717 568.083 185.522 577.604 185.522H596.072V139.476H590.655C589.014 139.476 587.536 139.229 586.223 138.737C584.91 138.08 583.843 137.095 583.022 135.782C582.365 134.469 582.037 132.581 582.037 130.119V65.3578H596.072V19.3112H540.669V9.95409H494.376V19.3112H438.726V65.3578H452.761ZM352.852 132.483H354.231C357.528 132.483 360.892 132.654 364.321 132.991C367.192 133.115 369.615 132.894 371.647 132.416L371.687 132.407L371.728 132.398C373.519 132 374.609 131.303 375.36 130.485C375.477 130.357 376.295 129.225 376.295 125.44V72.1041H352.852V132.483ZM346.105 65.3578H383.041V125.44C383.041 129.872 382.138 133.074 380.333 135.043C378.527 137.013 376.147 138.327 373.192 138.983C370.401 139.64 367.282 139.886 363.835 139.722C362.875 139.626 361.923 139.544 360.978 139.476C358.688 139.312 356.439 139.229 354.231 139.229V185.522H369.252C377.46 185.522 385.175 183.963 392.398 180.844C399.785 177.561 406.188 173.21 411.605 167.793C417.022 162.376 421.29 156.056 424.409 148.833C427.693 141.446 429.334 133.648 429.334 125.44V19.0649H286.023V65.3578H299.813V185.522H346.105V65.3578ZM140.075 132.483V25.5702C136.752 30.3711 132.963 35.9285 128.705 42.2454C123.898 49.6197 119.242 57.4053 114.739 65.6044C110.446 73.7179 106.801 81.8078 103.795 89.8745C100.878 97.7048 99.5412 104.527 99.5412 110.42C99.5412 115.66 100.627 119.149 102.183 121.457C104.337 124.203 106.97 126.391 110.142 128.049C113.669 129.805 117.593 130.987 121.964 131.552C126.954 132.175 131.759 132.483 136.379 132.483H140.075ZM121.112 138.245C116.023 137.588 111.345 136.193 107.077 134.058C102.973 131.924 99.5255 129.052 96.7348 125.44C94.1082 121.664 92.7949 116.658 92.7949 110.42C92.7949 103.525 94.3544 95.8914 97.4735 87.5193C100.592 79.1472 104.368 70.7751 108.8 62.403C113.397 54.0309 118.158 46.0691 123.082 38.5178C126.208 33.8797 129.086 29.6442 131.716 25.8112C133.368 23.4036 134.923 21.1549 136.379 19.0649H80.9755C75.5582 27.7654 70.3051 36.7121 65.2162 45.905C63.3074 49.468 61.5343 53.0804 59.8968 56.7421C57.3094 62.5278 55.0606 68.4367 53.1505 74.4687V19.0649H6.8576V185.522H53.1505V141.446C55.1465 145.687 57.3952 149.57 59.8968 153.096C62.333 156.529 65.009 159.622 67.9248 162.376C73.8346 167.957 80.4009 172.472 87.6239 175.919C94.8469 179.366 102.562 181.829 110.77 183.306C116.968 184.4 123.255 185.089 129.633 185.373C131.871 185.473 134.119 185.522 136.379 185.522V139.229C131.454 139.229 126.365 138.901 121.112 138.245ZM230.05 65.3578V139.229H193.114V65.3578H230.05ZM199.86 72.1041V132.483H223.304V72.1041H199.86ZM535.99 65.3578V79.3934H499.054V65.3578H535.99ZM505.801 72.1041V72.6472H529.244V72.1041H505.801ZM276.343 185.522V19.0649H146.821V185.522H276.343ZM651.17 139.229H604.877V185.522H651.17V139.229Z" fill="black"/>
<path d="M13.4925 212.507L0 192.269H26.9851L35.4179 205.761L13.4925 212.507Z" fill="black"/>
<path d="M342.373 138.299L354.179 139.985L357.552 185.522H342.373V138.299Z" fill="white"/>
<path d="M143.358 20.2388C139.422 23.612 131.214 31.0329 129.865 33.7314L139.985 40.4776L143.358 20.2388Z" fill="black"/>
<path d="M431.761 192.269L445.253 212.507L452 204.075L445.253 192.269H431.761Z" fill="black"/>
<path d="M597.044 139.985L603.791 146.731H602.104V160.224L597.044 139.985Z" fill="black"/>
<path d="M602.104 13.4926L615.597 33.7314L600.417 32.0448L602.104 13.4926Z" fill="black"/>
<path d="M296.835 190.582L306.955 212.507L312.014 192.269L296.835 190.582Z" fill="black"/>
<path d="M71 28.5L59.3731 13L56 36.6119H65L71 28.5Z" fill="black"/>
<path d="M559 18.5L547.373 3L544 16.5L553.5 18L559 18.5Z" fill="black"/>
<path d="M671.254 151.791L657.762 131.552L654.389 155.164L664.508 161.91L671.254 151.791Z" fill="black"/>
</svg>
