<svg width="409" height="129" viewBox="0 0 409 129" fill="none" xmlns="http://www.w3.org/2000/svg">
<path d="M91.0952 22.8598C88.8003 26.1525 86.1062 30.0938 83.0131 34.6837C80.0197 39.2735 77.1261 44.1128 74.3322 49.2016C71.6382 54.2903 69.3433 59.3791 67.4474 64.4678C65.5516 69.5566 64.6037 74.1964 64.6037 78.3871C64.6037 82.1787 65.402 85.222 66.9984 87.5169C68.6947 89.7121 70.7901 91.4582 73.2845 92.7553C75.8788 94.0525 78.7225 94.9006 81.8157 95.2997C85.0086 95.6988 88.1018 95.8984 91.0952 95.8984V124.036C85.8069 124.036 80.6183 123.587 75.5296 122.689C70.5406 121.791 65.851 120.294 61.4607 118.199C57.0704 116.104 53.0792 113.36 49.4871 109.967C45.8951 106.575 42.9017 102.334 40.507 97.2454V124.036H12.3691V22.8598H40.507V56.5354C42.4028 50.5486 44.8474 44.7614 47.8408 39.1737C50.9339 33.5861 54.1269 28.1481 57.4196 22.8598H91.0952Z" fill="black"/>
<path d="M148.03 95.8984V50.9976H125.58V95.8984H148.03ZM176.168 124.036H97.4421V22.8598H176.168V124.036Z" fill="black"/>
<path d="M269.16 87.5169C269.16 92.5059 268.162 97.2454 266.166 101.736C264.27 106.126 261.676 109.967 258.383 113.26C255.091 116.553 251.199 119.197 246.709 121.193C242.319 123.088 237.629 124.036 232.64 124.036H223.51V95.8984C225.406 95.8984 227.352 95.9982 229.348 96.1977C231.443 96.2975 233.339 96.1478 235.035 95.7487C236.831 95.3496 238.278 94.5514 239.375 93.354C240.473 92.1567 241.022 90.211 241.022 87.5169V50.9976H218.571V124.036H190.434V50.9976H182.052V22.8598H269.16V87.5169Z" fill="black"/>
<path d="M308.693 23.0095V17.322H336.831V23.0095H370.507V50.9976H361.976V90.3606C361.976 91.8573 362.175 93.0048 362.574 93.803C363.073 94.6013 363.722 95.1999 364.52 95.5991C365.318 95.8984 366.216 96.0481 367.214 96.0481C368.212 96.0481 369.309 96.0481 370.507 96.0481V124.036H359.282C353.494 124.036 348.904 122.939 345.512 120.744C342.219 118.548 339.675 115.755 337.879 112.362C336.183 108.87 335.085 104.978 334.586 100.688C334.187 96.2975 333.987 91.9072 333.987 87.5169H311.537V98.8918C311.537 102.384 310.839 105.677 309.442 108.77C308.145 111.763 306.348 114.408 304.054 116.702C301.759 118.997 299.065 120.793 295.971 122.091C292.878 123.388 289.635 124.036 286.243 124.036H274.868V96.0481C276.065 96.0481 277.163 96.0481 278.161 96.0481C279.159 96.0481 280.057 95.8984 280.855 95.5991C281.653 95.1999 282.252 94.6013 282.651 93.803C283.15 93.0048 283.399 91.8573 283.399 90.3606V50.9976H274.868V23.0095H308.693ZM333.987 59.5288V50.9976H311.537V59.5288H333.987Z" fill="black"/>
<path d="M403.996 95.8984V124.036H375.859V95.8984H403.996Z" fill="black"/>
<path fill-rule="evenodd" clip-rule="evenodd" d="M55.1413 18.7592L53.9376 20.6924C50.7326 25.8399 47.6222 31.1256 44.6065 36.5492V18.7592H8.26758V128.137H44.6065V110.851C45.2716 111.578 45.9596 112.277 46.6706 112.948C50.5679 116.629 54.912 119.618 59.6934 121.9C64.4274 124.159 69.4683 125.765 74.8021 126.725L74.8159 126.727C80.1454 127.668 85.5725 128.137 91.0942 128.137H180.268V55.0981H186.332V128.137H232.639C238.163 128.137 243.408 127.084 248.334 124.957L248.354 124.948L248.373 124.94C253.298 122.751 257.614 119.827 261.282 116.16C264.946 112.496 267.826 108.226 269.921 103.381C270.223 102.7 270.505 102.013 270.766 101.321V128.137H286.242C290.172 128.137 293.955 127.382 297.556 125.872C301.124 124.376 304.268 122.286 306.952 119.602C309.607 116.947 311.69 113.881 313.191 110.429C314.826 106.798 315.636 102.938 315.636 98.8917V91.6174H329.942C330.029 94.765 330.215 97.9122 330.501 101.059L330.506 101.11L330.512 101.161C331.058 105.859 332.27 110.203 334.189 114.154L334.22 114.218L334.254 114.281C336.379 118.294 339.395 121.594 343.236 124.155L343.26 124.171L343.283 124.186C347.568 126.959 353.028 128.137 359.28 128.137H408.096V91.7978H371.757V91.9475H367.213C366.791 91.9475 366.466 91.9022 366.217 91.8396C366.212 91.8348 366.207 91.8298 366.201 91.8245C366.19 91.776 366.177 91.7153 366.164 91.6411C366.114 91.354 366.075 90.9362 366.075 90.3606V55.0981H374.606V18.9089H340.931V13.2214H304.592V18.9089H273.259V18.7592H55.1413ZM273.259 55.0981V87.5169C273.259 89.0118 273.178 90.489 273.017 91.9475H278.16C278.516 91.9475 278.803 91.9153 279.033 91.8676L279.069 91.7949L279.151 91.6642C279.16 91.64 279.181 91.5796 279.204 91.4726C279.252 91.2506 279.298 90.8917 279.298 90.3606V55.0981H273.259ZM283.398 50.9976V90.3606C283.398 91.8573 283.149 93.0047 282.65 93.803C282.251 94.6012 281.652 95.1999 280.854 95.599C280.056 95.8984 279.157 96.048 278.16 96.048H274.867V124.036H286.242C289.634 124.036 292.877 123.388 295.97 122.09C299.064 120.793 301.758 118.997 304.052 116.702C306.347 114.407 308.143 111.763 309.441 108.77C310.837 105.677 311.536 102.384 311.536 98.8917V87.5169H333.986C333.986 91.9072 334.186 96.2975 334.585 100.688C335.084 104.978 336.182 108.87 337.878 112.362C339.674 115.754 342.218 118.548 345.511 120.743C348.903 122.939 353.493 124.036 359.28 124.036H370.506V96.048H367.213C366.215 96.048 365.317 95.8984 364.519 95.599C363.721 95.1999 363.072 94.6012 362.573 93.803C362.174 93.0047 361.975 91.8573 361.975 90.3606V50.9976H370.506V23.0094H336.83V17.322H308.692V23.0094H274.867V50.9976H283.398ZM222.671 91.7978H223.509C225.513 91.7978 227.558 91.9014 229.642 92.1064C231.387 92.1819 232.86 92.0477 234.095 91.7572L234.12 91.7513L234.144 91.7458C235.233 91.5039 235.896 91.0807 236.352 90.5831C236.423 90.5056 236.92 89.8172 236.92 87.5169V55.0981H222.671V91.7978ZM218.57 50.9976H241.021V87.5169C241.021 90.2109 240.472 92.1566 239.374 93.354C238.277 94.5513 236.83 95.3496 235.034 95.7487C233.338 96.1478 231.442 96.2975 229.346 96.1977C228.763 96.1394 228.185 96.0896 227.61 96.0483C226.218 95.9483 224.851 95.8984 223.509 95.8984V124.036H232.639C237.628 124.036 242.318 123.088 246.708 121.192C251.198 119.197 255.09 116.553 258.382 113.26C261.675 109.967 264.269 106.126 266.165 101.735C268.161 97.2454 269.159 92.5059 269.159 87.5169V22.8597H182.051V50.9976H190.432V124.036H218.57V50.9976ZM93.3405 91.7978V26.8137C91.3207 29.7318 89.0175 33.1098 86.4299 36.9493C83.5077 41.4316 80.6777 46.1638 77.9407 51.1474C75.3314 56.079 73.1156 60.9962 71.2889 65.8993C69.5158 70.6587 68.7032 74.8057 68.7032 78.387C68.7032 81.5725 69.363 83.6929 70.309 85.0956C71.6179 86.765 73.2183 88.0947 75.1467 89.1023C77.2906 90.17 79.6752 90.8883 82.332 91.2319C85.3656 91.6108 88.2856 91.7978 91.0942 91.7978H93.3405ZM81.8147 95.2997C78.7215 94.9006 75.8778 94.0524 73.2835 92.7553C70.789 91.4582 68.6937 89.712 66.9974 87.5169C65.4009 85.2219 64.6027 82.1787 64.6027 78.387C64.6027 74.1963 65.5506 69.5566 67.4464 64.4678C69.3422 59.379 71.6372 54.2903 74.3312 49.2015C77.125 44.1128 80.0186 39.2735 83.012 34.6836C84.9119 31.8645 86.6611 29.29 88.2598 26.9603C89.264 25.4969 90.2088 24.13 91.0942 22.8597H57.4186C54.1258 28.148 50.9329 33.586 47.8397 39.1737C46.6795 41.3394 45.6018 43.5351 44.6065 45.7607C43.0338 49.2774 41.667 52.8689 40.5059 56.5353V22.8597H12.3681V124.036H40.5059V97.2454C41.7191 99.8234 43.086 102.184 44.6065 104.326C46.0873 106.413 47.7138 108.293 49.4861 109.967C53.0782 113.36 57.0693 116.104 61.4596 118.199C65.8499 120.294 70.5396 121.791 75.5285 122.689C79.2956 123.354 83.1173 123.773 86.9936 123.945C88.3537 124.006 89.7206 124.036 91.0942 124.036V95.8984C88.1008 95.8984 85.0076 95.6988 81.8147 95.2997ZM148.029 50.9976V95.8984H125.579V50.9976H148.029ZM129.679 55.0981V91.7978H143.929V55.0981H129.679ZM333.986 50.9976V59.5287H311.536V50.9976H333.986ZM315.636 55.0981V55.4282H329.886V55.0981H315.636ZM176.167 124.036V22.8597H97.4411V124.036H176.167ZM403.995 95.8984H375.858V124.036H403.995V95.8984Z" fill="black"/>
<path d="M82.894 10.5583C80.5991 13.851 77.905 17.7923 74.8119 22.3822C71.8185 26.972 68.9249 31.8113 66.1311 36.9001C63.437 41.9888 61.1421 47.0776 59.2463 52.1663C57.3505 57.2551 56.4025 61.8948 56.4025 66.0856C56.4025 69.8772 57.2008 72.9205 58.7973 75.2154C60.4935 77.4105 62.5889 79.1567 65.0834 80.4538C67.6776 81.751 70.5214 82.5991 73.6145 82.9982C76.8075 83.3973 79.9006 83.5969 82.894 83.5969V111.735C77.6057 111.735 72.4172 111.286 67.3284 110.388C62.3394 109.49 57.6498 107.993 53.2595 105.898C48.8692 103.802 44.878 101.058 41.286 97.6658C37.6939 94.2733 34.7005 90.0327 32.3058 84.9439V111.735H4.16797V10.5583H32.3058V44.2339C34.2016 38.2471 36.6462 32.4599 39.6396 26.8722C42.7328 21.2846 45.9257 15.8466 49.2184 10.5583H82.894Z" fill="#FF7AC3"/>
<path d="M139.829 83.5969V38.6961H117.379V83.5969H139.829ZM167.967 111.735H89.2409V10.5583H167.967V111.735Z" fill="#FF7AC3"/>
<path d="M260.958 75.2154C260.958 80.2044 259.961 84.9439 257.965 89.434C256.069 93.8243 253.475 97.6658 250.182 100.959C246.889 104.251 242.998 106.895 238.508 108.891C234.118 110.787 229.428 111.735 224.439 111.735H215.309V83.5969C217.205 83.5969 219.151 83.6967 221.146 83.8962C223.242 83.996 225.138 83.8463 226.834 83.4472C228.63 83.0481 230.077 82.2499 231.174 81.0525C232.272 79.8552 232.821 77.9094 232.821 75.2154V38.6961H210.37V111.735H182.232V38.6961H173.851V10.5583H260.958V75.2154Z" fill="#FF7AC3"/>
<path d="M300.492 10.7079V5.02051H328.63V10.7079H362.306V38.6961H353.774V78.0591C353.774 79.5558 353.974 80.7033 354.373 81.5015C354.872 82.2997 355.52 82.8984 356.319 83.2975C357.117 83.5969 358.015 83.7466 359.013 83.7466C360.011 83.7466 361.108 83.7466 362.306 83.7466V111.735H351.08C345.293 111.735 340.703 110.637 337.311 108.442C334.018 106.247 331.474 103.453 329.678 100.061C327.981 96.5682 326.884 92.6768 326.385 88.3863C325.986 83.996 325.786 79.6057 325.786 75.2154H303.336V86.5903C303.336 90.0825 302.637 93.3753 301.24 96.4684C299.943 99.4618 298.147 102.106 295.852 104.401C293.557 106.696 290.863 108.492 287.77 109.789C284.677 111.086 281.434 111.735 278.042 111.735H266.667V83.7466C267.864 83.7466 268.962 83.7466 269.96 83.7466C270.957 83.7466 271.855 83.5969 272.654 83.2975C273.452 82.8984 274.051 82.2997 274.45 81.5015C274.949 80.7033 275.198 79.5558 275.198 78.0591V38.6961H266.667V10.7079H300.492ZM325.786 47.2272V38.6961H303.336V47.2272H325.786Z" fill="#FF7AC3"/>
<path d="M395.795 83.5969V111.735H367.657V83.5969H395.795Z" fill="white"/>
<path fill-rule="evenodd" clip-rule="evenodd" d="M46.9401 6.45769L45.7365 8.39085C42.5314 13.5384 39.4211 18.8241 36.4053 24.2477V6.45769H0.0664062V115.835H36.4053V98.5492C37.0704 99.276 37.7584 99.9754 38.4694 100.647C42.3667 104.328 46.7108 107.316 51.4922 109.598C56.2263 111.858 61.2672 113.463 66.6009 114.423L66.6148 114.426C71.9442 115.366 77.3714 115.835 82.893 115.835H172.066V42.7966H178.131V115.835H224.438C229.961 115.835 235.207 114.783 240.133 112.655L240.152 112.647L240.172 112.638C245.097 110.449 249.413 107.526 253.081 103.858C256.744 100.194 259.625 95.9242 261.72 91.0799C262.022 90.3984 262.304 89.7118 262.565 89.0199V115.835H278.041C281.971 115.835 285.754 115.081 289.355 113.57C292.922 112.074 296.067 109.984 298.751 107.3C301.405 104.646 303.489 101.58 304.99 98.127C306.624 94.4963 307.435 90.6364 307.435 86.5902V79.3159H321.741C321.828 82.4635 322.014 85.6107 322.3 88.7575L322.305 88.8088L322.311 88.8599C322.857 93.557 324.069 97.9012 325.988 101.852L326.019 101.916L326.053 101.979C328.177 105.993 331.194 109.293 335.035 111.854L335.058 111.869L335.082 111.885C339.367 114.657 344.827 115.835 351.079 115.835H399.895V79.4963H363.556V79.646H359.012C358.589 79.646 358.265 79.6007 358.016 79.5381C358.011 79.5333 358.006 79.5283 358 79.523C357.989 79.4745 357.976 79.4138 357.963 79.3396C357.913 79.0525 357.874 78.6347 357.874 78.0591V42.7966H366.405V6.60736H332.729V0.919922H296.391V6.60736H265.058V6.45769H46.9401ZM265.058 42.7966V75.2154C265.058 76.7103 264.977 78.1874 264.816 79.646H269.959C270.315 79.646 270.602 79.6137 270.832 79.5661L270.868 79.4934L270.95 79.3627C270.959 79.3385 270.98 79.2781 271.003 79.1711C271.051 78.9491 271.096 78.5902 271.096 78.0591V42.7966H265.058ZM275.197 38.696V78.0591C275.197 79.5558 274.948 80.7032 274.449 81.5015C274.049 82.2997 273.451 82.8984 272.653 83.2975C271.854 83.5968 270.956 83.7465 269.959 83.7465H266.666V111.735H278.041C281.433 111.735 284.676 111.086 287.769 109.789C290.862 108.492 293.556 106.696 295.851 104.401C298.146 102.106 299.942 99.4618 301.239 96.4684C302.636 93.3752 303.335 90.0825 303.335 86.5902V75.2154H325.785C325.785 79.6057 325.985 83.996 326.384 88.3863C326.883 92.6768 327.98 96.5682 329.677 100.06C331.473 103.453 334.017 106.247 337.31 108.442C340.702 110.637 345.292 111.735 351.079 111.735H362.304V83.7465H359.012C358.014 83.7465 357.116 83.5968 356.318 83.2975C355.519 82.8984 354.871 82.2997 354.372 81.5015C353.973 80.7032 353.773 79.5558 353.773 78.0591V38.696H362.304V10.7079H328.629V5.02045H300.491V10.7079H266.666V38.696H275.197ZM214.47 79.4963H215.308C217.312 79.4963 219.356 79.5999 221.441 79.8049C223.186 79.8804 224.659 79.7462 225.894 79.4556L225.918 79.4498L225.943 79.4443C227.032 79.2024 227.694 78.7792 228.15 78.2816C228.222 78.2041 228.719 77.5157 228.719 75.2154V42.7966H214.47V79.4963ZM210.369 38.696H232.82V75.2154C232.82 77.9094 232.271 79.8551 231.173 81.0525C230.076 82.2498 228.629 83.048 226.833 83.4472C225.362 83.8752 223.495 83.9323 222.622 83.9323C220.926 83.9323 219.983 83.7881 219.409 83.7468C218.017 83.6468 216.65 83.5968 215.308 83.5968V111.735H224.438C229.427 111.735 234.117 110.787 238.507 108.891C242.997 106.895 246.888 104.251 250.181 100.958C253.474 97.6658 256.068 93.8242 257.964 89.4339C259.96 84.9439 260.957 80.2043 260.957 75.2154V10.5582H173.85V38.696H182.231V111.735H210.369V38.696ZM85.1394 79.4963V14.5122C83.1196 17.4303 80.8163 20.8083 78.2287 24.6478C75.3065 29.1301 72.4765 33.8623 69.7396 38.8459C67.1302 43.7774 64.9144 48.6947 63.0878 53.5978C61.3147 58.3572 60.502 62.5042 60.502 66.0855C60.502 69.271 61.1618 71.3914 62.1079 72.7941C63.4168 74.4635 65.0172 75.7932 66.9455 76.8008C69.0894 77.8685 71.4741 78.5868 74.1309 78.9304C77.1644 79.3092 80.0844 79.4963 82.893 79.4963H85.1394ZM73.6135 82.9982C70.5203 82.599 67.6766 81.7509 65.0823 80.4538C62.5878 79.1566 60.4925 77.4105 58.7962 75.2154C57.1997 72.9204 56.4015 69.8772 56.4015 66.0855C56.4015 61.8948 57.3494 57.255 59.2452 52.1663C61.141 47.0775 63.436 41.9888 66.13 36.9C68.9238 31.8113 71.8175 26.972 74.8108 22.3821C76.7107 19.563 78.46 16.9885 80.0587 14.6587C81.0628 13.1954 82.0076 11.8285 82.893 10.5582H49.2174C45.9247 15.8465 42.7317 21.2845 39.6386 26.8722C38.4784 29.0379 37.4006 31.2336 36.4053 33.4592C34.8326 36.9759 33.4658 40.5674 32.3048 44.2338V10.5582H4.16693V111.735H32.3048V84.9439C33.518 87.5219 34.8848 89.8822 36.4053 92.0249C37.8861 94.1117 39.5126 95.9919 41.2849 97.6658C44.877 101.058 48.8682 103.802 53.2585 105.898C57.6488 107.993 62.3384 109.49 67.3274 110.388C71.0944 111.052 74.9161 111.471 78.7925 111.644C80.1526 111.704 81.5194 111.735 82.893 111.735V83.5968C79.8996 83.5968 76.8064 83.3973 73.6135 82.9982ZM139.828 38.696V83.5968H117.378V38.696H139.828ZM121.478 42.7966V79.4963H135.728V42.7966H121.478ZM325.785 38.696V47.2272H303.335V38.696H325.785ZM307.435 42.7966V43.1267H321.685V42.7966H307.435ZM167.966 111.735V10.5582H89.2399V111.735H167.966ZM395.794 83.5968H367.656V111.735H395.794V83.5968Z" fill="black"/>
<path d="M8.26803 128.134L0.0664062 115.835H16.4007L21.5263 124.036L8.26803 128.134Z" fill="black"/>
<path d="M208.102 83.0312L215.61 83.6304L217.328 111.735H208.102V83.0312Z" fill="#FF7AC3"/>
<path d="M87.1357 11.2721C84.7437 13.3224 79.7547 17.833 78.9346 19.4732L85.0854 23.5737L87.1357 11.2721Z" fill="black"/>
<path d="M262.568 115.828L270.772 128.134L274.735 123.012L271.376 115.045L262.568 115.828Z" fill="black"/>
<path d="M362.896 84.0565L366.997 88.157H365.972V96.3581L362.896 84.0565Z" fill="black"/>
<path d="M366.359 6.61724L374.552 18.9066L365.13 19.5893L366.359 6.61724Z" fill="black"/>
<path d="M180.668 115.836L180.194 114.81L189.649 115.836L188.593 119.769L190.446 123.012L186.345 128.137L178.144 115.836H180.668Z" fill="black"/>
<path d="M43.1535 16.293L36.4052 6.45689L34.0362 21.2236H39.5066L43.1535 16.293Z" fill="black"/>
<path d="M339.772 10.215L332.728 0.919434L330.655 8.99934L336.429 9.91107L339.772 10.215Z" fill="black"/>
<path d="M210.374 81.0452H222.721V83.9322H210.374V81.0452Z" fill="black"/>
<path d="M336.015 117.165C330.404 109.997 326.13 102.127 326.13 102.127L334.049 108.137L341.128 115.803C341.128 115.803 337.288 118.792 336.015 117.165Z" fill="black"/>
<path d="M408.099 91.8021L399.887 79.4958L398.226 93.2825L404.377 97.3831L408.099 91.8021Z" fill="black"/>
<path d="M366.124 17.7438H372.844V53.7087H366.124V17.7438Z" fill="black"/>
<path d="M7.37236 120.696H43.2557V126.65H7.37236V120.696Z" fill="black"/>
<path d="M41.5595 100.308V124.513H35.6061V100.308H41.5595Z" fill="black"/>
<path d="M77.084 118.511H178.813V126.65H77.084V118.511Z" fill="black"/>
<path d="M173.757 122.409V40.3014H178.78V122.409H173.757Z" fill="black"/>
<path d="M215.039 47.3802H220.797V81.0453H215.039V47.3802Z" fill="black"/>
<path d="M122.476 47.3802H128.234V81.0453H122.476V47.3802Z" fill="black"/>
<path d="M230.061 47.3802V53.252H218.317V47.3802H230.061Z" fill="black"/>
<path d="M137.498 47.3802V53.252H125.755V47.3802H137.498Z" fill="black"/>
<path d="M187.539 112.492H238.461V126.65H187.539V112.492Z" fill="black"/>
<path d="M346.943 113.357H406.64V126.748H353.638C349.94 126.748 346.943 123.75 346.943 120.052V113.357Z" fill="black"/>
<path d="M357.577 43.6287H365.341V82.5948H357.577V43.6287Z" fill="black"/>
<path d="M32.1875 56.5432C32.1875 56.7649 35.8198 27.6196 51.3181 10.5346L47.1874 9.87317L39.7211 17.1377L32.2997 10.5346C32.2997 30.5666 32.1875 37.059 32.1875 56.5432Z" fill="black"/>
<rect x="303.33" y="46.0276" width="22.4437" height="4.91027" rx="0.0896853" fill="black"/>
</svg>
